<svg xmlns="http://www.w3.org/2000/svg" width="1120" height="260" viewBox="0 0 1120 260" role="img" aria-label="INTEGRATIONS: Your skills and MCP servers, found for you.">
  <defs>
    <linearGradient id="bg" x1="0" y1="0" x2="1" y2="1">
      <stop offset="0" stop-color="#0b1220"/>
      <stop offset="1" stop-color="#05070d"/>
    </linearGradient>
    <radialGradient id="glow" cx="82%" cy="12%" r="75%">
      <stop offset="0" stop-color="#f59e0b" stop-opacity="0.18"/>
      <stop offset="1" stop-color="#f59e0b" stop-opacity="0"/>
    </radialGradient>
    <radialGradient id="glow2" cx="10%" cy="110%" r="70%">
      <stop offset="0" stop-color="#1e293b" stop-opacity="0.85"/>
      <stop offset="1" stop-color="#1e293b" stop-opacity="0"/>
    </radialGradient>
    <!-- User space, so straight horizontal lines (zero-height boxes) still paint. -->
    <linearGradient id="acc" gradientUnits="userSpaceOnUse" x1="420" y1="0" x2="1080" y2="0">
      <stop offset="0" stop-color="#f59e0b"/>
      <stop offset="1" stop-color="#22d3ee"/>
    </linearGradient>
    <linearGradient id="bar" x1="0" y1="0" x2="1" y2="0">
      <stop offset="0" stop-color="#f59e0b"/>
      <stop offset="1" stop-color="#22d3ee"/>
    </linearGradient>
    <marker id="arrow" viewBox="0 0 10 10" refX="5" refY="5" markerUnits="userSpaceOnUse" markerWidth="9" markerHeight="9" orient="auto-start-reverse">
      <path d="M 0 0 L 10 5 L 0 10 z" fill="#f59e0b" fill-opacity="0.85"/>
    </marker>
    <pattern id="dots" width="26" height="26" patternUnits="userSpaceOnUse">
      <circle cx="2" cy="2" r="1.25" fill="#ffffff" fill-opacity="0.05"/>
    </pattern>
    <clipPath id="frame"><rect width="1120" height="260" rx="20"/></clipPath>
  </defs>
  <g clip-path="url(#frame)">
    <rect width="1120" height="260" fill="url(#bg)"/>
    <rect width="1120" height="260" fill="url(#glow)"/>
    <rect width="1120" height="260" fill="url(#glow2)"/>
    <rect width="1120" height="260" fill="url(#dots)"/>
    <text x="56" y="78" font-family="ui-monospace, SFMono-Regular, Menlo, Consolas, monospace" font-size="12" fill="#f59e0b" letter-spacing="2" font-weight="600">06 / INTEGRATIONS</text>
    <text x="56" y="120" font-family="ui-sans-serif, system-ui, -apple-system, 'Segoe UI', sans-serif" font-size="28" fill="#f8fafc" font-weight="700">Your skills and MCP</text><text x="56" y="154" font-family="ui-sans-serif, system-ui, -apple-system, 'Segoe UI', sans-serif" font-size="28" fill="#f8fafc" font-weight="700">servers, found for you.</text>
    <text x="56" y="192" font-family="ui-sans-serif, system-ui, -apple-system, 'Segoe UI', sans-serif" font-size="14" fill="#94a3b8">Read from the tools you already use</text>
    <rect x="56" y="208" width="44" height="4" rx="2" fill="url(#bar)"/>
    <g transform="translate(38 0)"><rect x="440" y="36" width="64" height="26" rx="13" fill="#94a3b8" fill-opacity="0.12" stroke="#94a3b8" stroke-opacity="0.45"/><text x="472" y="53.32" font-family="ui-sans-serif, system-ui, -apple-system, 'Segoe UI', sans-serif" font-size="12" fill="#94a3b8" text-anchor="middle" font-weight="600">Claude</text></g><path d="M 510 64 C 510 104, 760 96, 760 114" fill="none" stroke="url(#acc)" stroke-width="2" stroke-opacity="0.3" stroke-linecap="round" stroke-dasharray="2 6"/><g transform="translate(38 0)"><rect x="514" y="36" width="64" height="26" rx="13" fill="#94a3b8" fill-opacity="0.12" stroke="#94a3b8" stroke-opacity="0.45"/><text x="546" y="53.32" font-family="ui-sans-serif, system-ui, -apple-system, 'Segoe UI', sans-serif" font-size="12" fill="#94a3b8" text-anchor="middle" font-weight="600">Cursor</text></g><path d="M 584 64 C 584 104, 760 96, 760 114" fill="none" stroke="url(#acc)" stroke-width="2" stroke-opacity="0.3" stroke-linecap="round" stroke-dasharray="2 6"/><g transform="translate(38 0)"><rect x="588" y="36" width="71" height="26" rx="13" fill="#94a3b8" fill-opacity="0.12" stroke="#94a3b8" stroke-opacity="0.45"/><text x="623.5" y="53.32" font-family="ui-sans-serif, system-ui, -apple-system, 'Segoe UI', sans-serif" font-size="12" fill="#94a3b8" text-anchor="middle" font-weight="600">VS Code</text></g><path d="M 661.5 64 C 661.5 104, 760 96, 760 114" fill="none" stroke="url(#acc)" stroke-width="2" stroke-opacity="0.3" stroke-linecap="round" stroke-dasharray="2 6"/><g transform="translate(38 0)"><rect x="669" y="36" width="58" height="26" rx="13" fill="#94a3b8" fill-opacity="0.12" stroke="#94a3b8" stroke-opacity="0.45"/><text x="698" y="53.32" font-family="ui-sans-serif, system-ui, -apple-system, 'Segoe UI', sans-serif" font-size="12" fill="#94a3b8" text-anchor="middle" font-weight="600">Codex</text></g><path d="M 736 64 C 736 104, 760 96, 760 114" fill="none" stroke="url(#acc)" stroke-width="2" stroke-opacity="0.3" stroke-linecap="round" stroke-dasharray="2 6"/><g transform="translate(38 0)"><rect x="737" y="36" width="78" height="26" rx="13" fill="#94a3b8" fill-opacity="0.12" stroke="#94a3b8" stroke-opacity="0.45"/><text x="776" y="53.32" font-family="ui-sans-serif, system-ui, -apple-system, 'Segoe UI', sans-serif" font-size="12" fill="#94a3b8" text-anchor="middle" font-weight="600">opencode</text></g><path d="M 814 64 C 814 104, 760 96, 760 114" fill="none" stroke="url(#acc)" stroke-width="2" stroke-opacity="0.3" stroke-linecap="round" stroke-dasharray="2 6"/><g transform="translate(38 0)"><rect x="825" y="36" width="91" height="26" rx="13" fill="#94a3b8" fill-opacity="0.12" stroke="#94a3b8" stroke-opacity="0.45"/><text x="870.5" y="53.32" font-family="ui-sans-serif, system-ui, -apple-system, 'Segoe UI', sans-serif" font-size="12" fill="#94a3b8" text-anchor="middle" font-weight="600">Gemini CLI</text></g><path d="M 908.5 64 C 908.5 104, 760 96, 760 114" fill="none" stroke="url(#acc)" stroke-width="2" stroke-opacity="0.3" stroke-linecap="round" stroke-dasharray="2 6"/><g transform="translate(38 0)"><rect x="926" y="36" width="78" height="26" rx="13" fill="#94a3b8" fill-opacity="0.12" stroke="#94a3b8" stroke-opacity="0.45"/><text x="965" y="53.32" font-family="ui-sans-serif, system-ui, -apple-system, 'Segoe UI', sans-serif" font-size="12" fill="#94a3b8" text-anchor="middle" font-weight="600">Windsurf</text></g><path d="M 1003 64 C 1003 104, 760 96, 760 114" fill="none" stroke="url(#acc)" stroke-width="2" stroke-opacity="0.3" stroke-linecap="round" stroke-dasharray="2 6"/><circle cx="760" cy="140" r="24" fill="#f59e0b" fill-opacity="0.14" stroke="#f59e0b" stroke-opacity="0.75" stroke-width="2"/><circle cx="757" cy="137" r="8" fill="none" stroke="#f59e0b" stroke-width="2.5"/><line x1="763" y1="143" x2="769" y2="149" stroke="#f59e0b" stroke-width="2.5" stroke-opacity="1" stroke-linecap="round"/><path d="M 736 146 C 670 152, 640 170, 610 182" fill="none" stroke="#a78bfa" stroke-width="2" stroke-opacity="0.5" stroke-linecap="round" stroke-dasharray="2 6"/><rect x="440" y="150" width="170" height="24" rx="8" fill="#a78bfa" fill-opacity="0.08" stroke="#a78bfa" stroke-opacity="0.3"/><text x="454" y="166" font-family="ui-sans-serif, system-ui, -apple-system, 'Segoe UI', sans-serif" font-size="11" fill="#ddd6fe">✦ frontend-design</text><rect x="446" y="178" width="170" height="24" rx="8" fill="#a78bfa" fill-opacity="0.08" stroke="#a78bfa" stroke-opacity="0.3"/><text x="460" y="194" font-family="ui-sans-serif, system-ui, -apple-system, 'Segoe UI', sans-serif" font-size="11" fill="#ddd6fe">✦ release-notes</text><rect x="452" y="206" width="170" height="24" rx="8" fill="#a78bfa" fill-opacity="0.08" stroke="#a78bfa" stroke-opacity="0.3"/><text x="466" y="222" font-family="ui-sans-serif, system-ui, -apple-system, 'Segoe UI', sans-serif" font-size="11" fill="#ddd6fe">✦ stripe-best-practices</text><text x="630" y="244" font-family="ui-sans-serif, system-ui, -apple-system, 'Segoe UI', sans-serif" font-size="11" fill="#a78bfa" font-weight="600">skills</text><path d="M 784 146 C 850 152, 880 170, 910 182" fill="none" stroke="#22d3ee" stroke-width="2" stroke-opacity="0.5" stroke-linecap="round" stroke-dasharray="2 6"/><rect x="916" y="150" width="150" height="24" rx="8" fill="#22d3ee" fill-opacity="0.07" stroke="#22d3ee" stroke-opacity="0.3"/><circle cx="930" cy="162" r="3.5" fill="#34d399"/><text x="942" y="166" font-family="ui-monospace, SFMono-Regular, Menlo, Consolas, monospace" font-size="11" fill="#a5f3fc">github</text><text x="1054" y="166" font-family="ui-monospace, SFMono-Regular, Menlo, Consolas, monospace" font-size="10" fill="#94a3b8" text-anchor="end">mcp</text><rect x="916" y="178" width="150" height="24" rx="8" fill="#22d3ee" fill-opacity="0.07" stroke="#22d3ee" stroke-opacity="0.3"/><circle cx="930" cy="190" r="3.5" fill="#34d399"/><text x="942" y="194" font-family="ui-monospace, SFMono-Regular, Menlo, Consolas, monospace" font-size="11" fill="#a5f3fc">linear</text><text x="1054" y="194" font-family="ui-monospace, SFMono-Regular, Menlo, Consolas, monospace" font-size="10" fill="#94a3b8" text-anchor="end">mcp</text><rect x="916" y="206" width="150" height="24" rx="8" fill="#22d3ee" fill-opacity="0.07" stroke="#22d3ee" stroke-opacity="0.3"/><circle cx="930" cy="218" r="3.5" fill="#34d399"/><text x="942" y="222" font-family="ui-monospace, SFMono-Regular, Menlo, Consolas, monospace" font-size="11" fill="#a5f3fc">sentry</text><text x="1054" y="222" font-family="ui-monospace, SFMono-Regular, Menlo, Consolas, monospace" font-size="10" fill="#94a3b8" text-anchor="end">mcp</text><text x="876" y="244" font-family="ui-sans-serif, system-ui, -apple-system, 'Segoe UI', sans-serif" font-size="11" fill="#22d3ee" font-weight="600" text-anchor="end">MCP servers</text>
  </g>
  <rect x="0.5" y="0.5" width="1119" height="259" rx="20" fill="none" stroke="#ffffff" stroke-opacity="0.08"/>
</svg>
